<svg width="140" height="113" viewBox="0 0 140 113" fill="none" xmlns="http://www.w3.org/2000/svg">
<path fill-rule="evenodd" clip-rule="evenodd" d="M31.219 38.2837C33.5362 39.388 36.2318 39.9477 39.3058 39.9627C41.8674 39.9752 44.072 39.6615 45.9196 39.0216C47.7672 38.3817 49.3083 37.5524 50.5429 36.5338C51.7776 35.481 52.7564 34.3928 53.4792 33.2691C54.2363 32.1115 54.8052 31.0213 55.1859 29.9985C55.5668 28.9415 55.81 28.0888 55.9157 27.4404L56.1254 26.4679L49.2089 26.4341L49.0002 27.2016C48.8954 27.6793 48.6534 28.2758 48.2742 28.9912C47.9292 29.7068 47.3962 30.4215 46.6755 31.1353C45.9547 31.849 44.9953 32.4591 43.7974 32.9656C42.6338 33.4381 41.181 33.6701 39.4391 33.6616C37.5264 33.6522 35.8546 33.2683 34.4238 32.5099C32.9929 31.7514 31.8024 30.738 30.8523 29.4696C29.9021 28.2012 29.1917 26.7973 28.721 25.258C28.2847 23.6846 28.0705 22.0783 28.0786 20.4388C28.0866 18.7993 28.3164 17.1951 28.7681 15.6262C29.254 14.0574 29.9782 12.6434 30.9407 11.3844C31.9033 10.1253 33.1035 9.14063 34.5416 8.43039C35.9798 7.68599 37.6552 7.31847 39.5679 7.32782C41.3098 7.33635 42.7603 7.58253 43.9192 8.06639C45.1123 8.55041 46.0657 9.15281 46.7795 9.87358C47.4932 10.5943 48.019 11.3313 48.3569 12.0844C48.7291 12.8035 48.9653 13.4024 49.0654 13.881L49.2668 14.5993L56.1833 14.6331L55.9831 13.6587C55.8838 13.0092 55.6488 12.1713 55.2781 11.1448C54.9074 10.1183 54.3492 9.02255 53.6035 7.85759C52.8919 6.69281 51.9238 5.59508 50.6993 4.5644C49.4747 3.53373 47.9418 2.6894 46.1006 2.03143C44.2594 1.37345 42.0579 1.0382 39.4963 1.02567C36.4223 1.01063 33.7214 1.54391 31.3934 2.62552C29.0997 3.7073 27.1627 5.18361 25.5823 7.05447C24.0363 8.89134 22.8648 10.9691 22.0679 13.2878C21.3051 15.6067 20.9178 17.9787 20.9059 20.4037C20.8941 22.8287 21.2582 25.2044 21.9982 27.5306C22.7726 29.8229 23.9237 31.912 25.4515 33.7981C27.0136 35.6501 28.9361 37.1453 31.219 38.2837ZM62.8461 7.03183C63.6278 7.82124 64.6164 8.21888 65.8118 8.22472C67.0073 8.23057 67.9997 7.84263 68.7891 7.0609C69.5785 6.27917 69.9759 5.34183 69.9813 4.24886C69.9866 3.15589 69.5984 2.21469 68.8167 1.42528C68.035 0.635865 67.0464 0.238235 65.8509 0.232386C64.6555 0.226538 63.6631 0.614478 62.8737 1.3962C62.1184 2.1781 61.7381 3.11553 61.7327 4.2085C61.7274 5.30147 62.0985 6.24258 62.8461 7.03183ZM62.4099 12.4093L62.2771 39.5628L69.0911 39.5961L69.2239 12.4426L62.4099 12.4093ZM88.4114 40.2029C86.567 40.1939 85.0484 39.9132 83.8557 39.3609C82.6629 38.8086 81.7271 38.0867 81.0484 37.1953C80.4038 36.3041 79.9474 35.3284 79.6794 34.2683C79.4113 33.2081 79.2798 32.1657 79.2848 31.1411L79.3492 17.9742L74.687 17.9514L74.7138 12.4695L79.376 12.4923L79.4091 5.72953L86.2231 5.76287L86.19 12.5256L92.2867 12.5554L92.2599 18.0374L86.1632 18.0075L86.0995 31.0207C86.0877 33.4457 87.4479 34.6649 90.1804 34.6783C90.8293 34.6815 91.4272 34.6503 91.974 34.5846L92.8457 34.4352L92.8197 39.7634L91.4866 39.9618C90.6319 40.1284 89.6068 40.2088 88.4114 40.2029ZM97.6763 49.6241C98.2566 49.6953 98.9908 49.733 99.8788 49.7374C103.533 49.7552 106.441 48.8985 108.601 47.1671C110.761 45.4357 112.534 42.7631 113.918 39.1493L123.986 12.7105L117.07 12.6767L110.264 32.0099L103.544 12.6105L96.6279 12.5767L106.689 40.1387C105.896 41.6718 104.917 42.7088 103.753 43.2496C102.623 43.8247 101.187 44.108 99.4453 44.0995C98.7622 44.0961 98.1646 44.0591 97.6526 43.9883L96.8844 43.9333L96.8571 49.5176L97.6763 49.6241ZM10.9671 85.6878C8.07129 85.021 5.75769 83.8048 4.02626 82.0391C2.29482 80.2735 1.13416 78.2362 0.54427 75.9273C-0.00467248 73.5927 -0.00321236 71.2272 0.54865 68.8307C1.10051 66.4342 2.12996 64.323 3.637 62.4969C5.18499 60.6453 7.12362 59.3042 9.45291 58.4736C11.7822 57.6431 14.3947 57.5612 17.2905 58.228C20.2195 58.9025 22.5331 60.1188 24.2313 61.8768C25.9627 63.6424 27.1029 65.6925 27.6518 68.0271C28.2417 70.336 28.2607 72.6887 27.7089 75.0852C27.157 77.4817 26.1071 79.6057 24.5591 81.4574C23.0521 83.2834 21.1339 84.6117 18.8046 85.4423C16.5086 86.2805 13.8961 86.3623 10.9671 85.6878ZM12.2432 80.146C13.741 80.4909 15.0774 80.3955 16.2522 79.8599C17.4603 79.332 18.4724 78.5136 19.2886 77.4047C20.1124 76.2625 20.6891 74.9758 21.0187 73.5445C21.3559 72.08 21.4001 70.6707 21.1511 69.3165C20.9022 67.9624 20.3499 66.7837 19.4944 65.7805C18.6721 64.785 17.5121 64.1148 16.0143 63.7699C14.5498 63.4327 13.2135 63.528 12.0053 64.056C10.7972 64.5839 9.7851 65.4023 8.96895 66.5112C8.1528 67.6201 7.5761 68.9068 7.23885 70.3713C6.90927 71.8026 6.86512 73.2119 7.10642 74.5994C7.35537 75.9535 7.90762 77.1322 8.76315 78.1354C9.61868 79.1385 10.7787 79.8087 12.2432 80.146ZM33.1762 90.2764L38.0395 69.1573L33.7957 68.1801L35.0259 62.8379L39.2697 63.8152L39.8331 61.3687C40.063 60.3702 40.4376 59.3524 40.9568 58.3153C41.4837 57.245 42.1745 56.3 43.0292 55.4804C43.9171 54.6684 45.0126 54.097 46.3155 53.7661C47.6517 53.4429 49.2185 53.4883 51.0159 53.9022C52.0144 54.1321 52.8107 54.4031 53.4048 54.7152L54.3573 55.1448L53.2421 59.9877L52.6161 59.7384C52.2064 59.5389 51.7519 59.3817 51.2526 59.2667C49.8214 58.9371 48.7437 59.1271 48.0195 59.8366C47.2953 60.546 46.7799 61.5665 46.4733 62.8979L45.91 65.3443L51.5517 66.6435L50.3215 71.9856L44.6798 70.6865L39.8165 91.8055L33.1762 90.2764ZM135.901 87.0656C134.172 87.7075 132.652 87.9804 131.341 87.8842C130.03 87.788 128.9 87.4425 127.95 86.8478C127.033 86.2411 126.262 85.4891 125.637 84.5916C125.012 83.6941 124.522 82.765 124.165 81.8044L119.582 69.4607L115.211 71.0835L113.303 65.9444L117.674 64.3216L115.32 57.9816L121.708 55.6098L124.062 61.9498L129.777 59.8276L131.685 64.9668L125.97 67.089L130.499 79.2885C131.344 81.5619 133.046 82.2231 135.608 81.272C136.216 81.0461 136.765 80.8061 137.253 80.5518L138.016 80.1046L139.871 85.0997L138.694 85.7554C137.952 86.2127 137.022 86.6495 135.901 87.0656ZM65.4315 72.2418L66.3803 112.331L73.2005 109.799L72.9642 101.361L87.2771 96.047L92.6046 102.595L99.4248 100.062L73.9328 69.0854L65.4315 72.2418ZM83.2996 91.075L72.733 94.9982L72.185 77.3308L83.2996 91.075ZM94.6232 72.88L104.075 98.3358L110.463 95.964L106.094 84.1967C105.059 81.411 104.887 79.1797 105.576 77.503C106.265 75.8262 107.73 74.5717 109.971 73.7395C110.644 73.4898 111.216 73.3138 111.688 73.2114L112.444 73.04L110.144 66.8441L109.484 66.9799C109.032 67.0384 108.486 67.1865 107.845 67.4243C105.796 68.1852 104.414 69.1721 103.698 70.385C102.982 71.598 102.585 72.784 102.505 73.943L102.265 74.0322L100.963 70.526L94.6232 72.88Z" fill="#FFDD00"/>
</svg>
