<svg width="86" height="86" viewBox="0 0 86 86" fill="none" xmlns="http://www.w3.org/2000/svg">
<rect width="86" height="86" rx="43" fill="#FFDD00"/>
<path d="M29.1766 49V38.64H30.5486V43.316L35.0286 38.654H36.8206L31.9766 43.624L37.0306 49H35.1826L30.5486 44.058V49H29.1766ZM42.8086 37.52L41.6746 37.506L42.8786 34.986H44.2506L42.8086 37.52ZM38.8186 49V38.64H45.3986V39.844H40.1906V43.12H44.7546V44.324H40.1906V47.796H45.4686V49H38.8186ZM52.159 49.14C51.3376 49.14 50.6143 48.9907 49.989 48.692C49.3636 48.384 48.841 47.978 48.421 47.474C48.001 46.9607 47.6836 46.3867 47.469 45.752C47.2543 45.1173 47.147 44.4687 47.147 43.806C47.147 43.1433 47.2543 42.4993 47.469 41.874C47.6836 41.2393 48.001 40.67 48.421 40.166C48.841 39.662 49.3636 39.2607 49.989 38.962C50.6143 38.654 51.3376 38.5 52.159 38.5C52.9803 38.5 53.7036 38.654 54.329 38.962C54.9543 39.2607 55.477 39.662 55.897 40.166C56.317 40.67 56.6343 41.2393 56.849 41.874C57.0636 42.4993 57.171 43.1433 57.171 43.806C57.171 44.4687 57.0636 45.1173 56.849 45.752C56.6343 46.3867 56.317 46.9607 55.897 47.474C55.477 47.978 54.9543 48.384 54.329 48.692C53.7036 48.9907 52.9803 49.14 52.159 49.14ZM52.159 47.866C52.747 47.866 53.265 47.754 53.713 47.53C54.161 47.306 54.5343 47.0027 54.833 46.62C55.141 46.2373 55.3743 45.8033 55.533 45.318C55.6916 44.8327 55.771 44.3287 55.771 43.806C55.771 43.2927 55.6916 42.798 55.533 42.322C55.3743 41.8367 55.141 41.4027 54.833 41.02C54.5343 40.6373 54.161 40.334 53.713 40.11C53.265 39.886 52.747 39.774 52.159 39.774C51.571 39.774 51.053 39.886 50.605 40.11C50.157 40.334 49.779 40.6373 49.471 41.02C49.1723 41.4027 48.9436 41.8367 48.785 42.322C48.6263 42.798 48.547 43.2927 48.547 43.806C48.547 44.3287 48.6263 44.8327 48.785 45.318C48.9436 45.8033 49.1723 46.2373 49.471 46.62C49.779 47.0027 50.157 47.306 50.605 47.53C51.053 47.754 51.571 47.866 52.159 47.866Z" fill="#191919"/>
</svg>
