<svg width="117" height="73" viewBox="0 0 117 73" fill="none" xmlns="http://www.w3.org/2000/svg">
<path d="M57.0856 14.679H43.2788V28.6018H57.0856V14.679Z" fill="#FFDD00"/>
<path d="M63.9175 0H7.96555H0V8.03248V64.4546V72.487H7.96555H37.4902V64.4546H7.96555V8.03248H63.9175V35.4861L71.883 43.6399V8.03248V0H63.9175Z" fill="#FFDD00"/>
<path d="M18.4585 48.324H22.7799C25.6942 48.324 27.0661 49.7782 27.0661 52.3883C27.0661 54.9983 25.644 56.5208 22.5918 56.5208H20.8587V60.8456H18.4585V48.324ZM20.8587 50.2107V54.6139H22.3635C23.9586 54.6139 24.6208 53.7312 24.6208 52.3832C24.6208 51.0352 23.9687 50.2056 22.5792 50.2056L20.8587 50.2107Z" fill="white"/>
<path d="M35.1951 55.4156H30.2918V60.8456H27.8716V48.324H30.2918V53.41H35.1951V48.324H37.6128V60.8456H35.1951V55.4156Z" fill="white"/>
<path d="M38.8191 54.5834C38.8191 51.0047 40.0731 48.0481 44.2565 48.0481C48.5779 48.0481 49.6915 51.0047 49.6915 54.5834C49.6915 58.1621 48.4374 61.1211 44.2565 61.1211C39.9452 61.1211 38.8191 58.1545 38.8191 54.5834ZM47.1884 54.5834C47.1884 51.7659 46.3307 50.1068 44.2565 50.1068C42.1824 50.1068 41.3221 51.7659 41.3221 54.5834C41.3221 57.4008 42.1799 59.0624 44.2565 59.0624C46.3332 59.0624 47.1985 57.3958 47.1985 54.5834H47.1884ZM43.1756 45.1093H45.34L47.1558 47.4943H45.4428L44.259 46.2499L43.0828 47.4943H41.3673L43.1756 45.1093ZM47.8681 43.7385H50.4915L48.2945 46.1235H46.594L47.8681 43.7385Z" fill="white"/>
<path d="M54.0234 48.324H58.2244C60.9833 48.324 62.305 49.5177 62.305 51.627C62.305 52.9421 61.7908 53.7894 60.9005 54.3079C61.5153 54.556 62.0385 54.9905 62.3979 55.5514C62.7573 56.1122 62.9351 56.7718 62.9069 57.4389C62.9069 59.4622 61.6529 60.8456 58.6182 60.8456H54.0234V48.324ZM56.4587 50.279V53.5668H57.9335C59.3229 53.5668 59.8195 52.927 59.8195 51.8369C59.8195 50.9037 59.2878 50.2815 58.0639 50.2815L56.4587 50.279ZM56.4587 55.3979V58.9134H58.568C59.8872 58.9134 60.4189 58.2558 60.4189 57.2366C60.4189 56.1642 59.8521 55.403 58.3624 55.403L56.4587 55.3979Z" fill="white"/>
<path d="M64.0525 48.3237H71.8901V50.3293H66.4728V53.4249H71.1352V55.4305H66.4728V58.8372H71.9604V60.8454H64.0525V48.3237ZM66.9342 44.7627H69.0786L70.8969 47.4941H69.1814L67.9976 46.0753L66.8314 47.4941H65.1159L66.9342 44.7627Z" fill="white"/>
<path d="M88.5845 53.6324H89.6479V48.3213H94.0395C98.3608 48.3213 99.7302 51.0022 99.7302 54.5809C99.7302 58.1596 98.2254 60.843 94.0395 60.843H89.6479V55.7088H88.5845V53.6324ZM92.0656 50.3294V53.6324H94.4508V55.7088H92.0656V58.8374H93.9517C96.0283 58.8374 97.2272 57.4893 97.2272 54.5834C97.2272 51.6774 96.0283 50.3294 93.9517 50.3294H92.0656Z" fill="white"/>
<path d="M100.364 54.5834C100.364 51.0047 101.618 48.0481 105.801 48.0481C110.123 48.0481 111.236 51.0047 111.236 54.5834C111.236 58.1621 109.982 61.1211 105.801 61.1211C101.48 61.1211 100.364 58.1545 100.364 54.5834ZM108.733 54.5834C108.733 51.7659 107.876 50.1068 105.801 50.1068C103.727 50.1068 102.867 51.7659 102.867 54.5834C102.867 57.4008 103.725 59.0624 105.801 59.0624C107.878 59.0624 108.733 57.3958 108.733 54.5834ZM104.72 45.1093H106.865L108.681 47.4943H106.968L105.784 46.2499L104.618 47.4943H102.902L104.72 45.1093ZM110.602 46.121H108.904L106.709 43.7385H109.333L110.602 46.121Z" fill="white"/>
<path d="M111.733 48.324H117V50.2613H115.566V58.9134H116.988V60.8507H111.721V58.9134H113.146V50.2613H111.721L111.733 48.324Z" fill="white"/>
<path d="M94.5735 53.6353H88.7097V55.7116H94.5735V53.6353Z" fill="white"/>
<path d="M83.2113 48.324H80.8964V53.668L75.5969 48.324H73.144V60.8456H75.459V53.6174C75.459 53.2001 75.3913 52.4566 75.306 51.713L80.8889 57.3428V60.8456H83.2113V48.324Z" fill="white"/>
<path d="M44.3846 64.5127H46.0098L48.8163 72.3656H47.1911L46.6343 70.6736H43.6748L43.1256 72.3656H41.5781L44.3846 64.5127ZM44.0862 69.4369H46.2255L45.5283 67.2897C45.3734 66.8251 45.251 66.3501 45.1621 65.8683C45.0732 66.3501 44.9508 66.8251 44.7959 67.2897L44.0862 69.4369Z" fill="white"/>
<path d="M49.519 66.8017H50.906L50.9587 67.4947C51.1027 67.2384 51.3106 67.0245 51.5618 66.8741C51.8129 66.7238 52.0987 66.6421 52.3908 66.6373C52.5437 66.6357 52.696 66.6578 52.8422 66.703V68.1244C52.6101 68.0667 52.3713 68.0412 52.1324 68.0485C51.9225 68.0429 51.7135 68.0794 51.5176 68.1558C51.3217 68.2322 51.1428 68.347 50.9913 68.4937V72.3657H49.519V66.8017Z" fill="white"/>
<path d="M53.1145 66.8015H53.9773V65.0767H55.4495V66.8015H57.2578V68.0383H55.4495V70.4232C55.4495 70.9872 55.5899 71.2376 56.2771 71.2376C56.599 71.2385 56.9201 71.2054 57.2352 71.139V72.2998C56.8078 72.4564 56.3557 72.5335 55.9009 72.5274C54.3735 72.5274 53.9773 71.7687 53.9773 70.5218V68.0383H53.1145V66.8015Z" fill="white"/>
<path d="M60.1377 69.5989C60.1377 67.7021 61.008 66.6374 62.7084 66.6374C63.2631 66.6278 63.8143 66.7274 64.3311 66.9307V68.1447C63.8813 67.9921 63.4086 67.9194 62.9342 67.9297C62.0513 67.9297 61.6425 68.6126 61.6425 69.5559C61.6425 70.4993 62.0639 71.2479 62.9442 71.2479C63.4304 71.2594 63.915 71.1858 64.3763 71.0304V72.214C63.8113 72.4379 63.2074 72.5446 62.6006 72.5277C61.018 72.5277 60.1377 71.3896 60.1377 69.5989Z" fill="white"/>
<path d="M64.9028 69.5885C64.9028 67.8637 65.7305 66.627 67.6617 66.627C69.6405 66.627 70.4205 67.8637 70.4205 69.5759C70.4205 71.2881 69.5929 72.5375 67.6617 72.5375C65.6778 72.5375 64.9028 71.3058 64.9028 69.5885ZM68.8931 69.5885C68.8931 68.625 68.5821 67.8435 67.6567 67.8435C66.7312 67.8435 66.4202 68.6351 66.4202 69.6012C66.4202 70.5673 66.7312 71.3463 67.6567 71.3463C68.5821 71.3463 68.8931 70.5471 68.8931 69.5759V69.5885Z" fill="white"/>
<path d="M71.4668 66.8016H72.7459L72.8638 67.2569C73.3318 66.8253 73.9507 66.5988 74.5843 66.6271C75.9838 66.6271 76.5757 67.4617 76.5757 68.7212V72.3657H75.1009V68.916C75.1009 68.2331 74.7573 67.917 74.0977 67.917C73.6934 67.9077 73.2946 68.0128 72.9465 68.2205V72.3657H71.4743L71.4668 66.8016Z" fill="white"/>
<path d="M77.9453 66.8016H79.2269L79.3448 67.2569C79.8129 66.8253 80.4317 66.5988 81.0653 66.6271C82.4623 66.6271 83.0542 67.4617 83.0542 68.7212V72.3657H81.582V68.916C81.582 68.2331 81.2384 67.917 80.5788 67.917C80.1744 67.9073 79.7755 68.0125 79.4276 68.2205V72.3657H77.9453V66.8016Z" fill="white"/>
<path d="M83.9644 69.6088C83.9644 67.9927 84.6315 66.627 86.4724 66.627C88.3534 66.627 88.9804 68.0483 88.9804 69.4899C88.9809 69.6641 88.97 69.8382 88.9478 70.0109H85.4416C85.4968 70.7697 85.893 71.2477 86.8737 71.2477C87.4804 71.2534 88.0838 71.1577 88.6594 70.9644V72.1379C88.0447 72.4173 87.3745 72.5506 86.7006 72.5274C84.8948 72.5274 83.9644 71.3994 83.9644 69.6088ZM85.4466 68.9588H87.4907C87.438 68.2329 87.1044 67.7878 86.4599 67.7878C85.8153 67.7878 85.5068 68.2329 85.4516 68.9588H85.4466Z" fill="white"/>
<path d="M89.552 69.5989C89.552 67.702 90.4223 66.6373 92.1227 66.6373C92.6774 66.6284 93.2284 66.7281 93.7455 66.9306V68.1446C93.2947 67.9922 92.8213 67.9195 92.346 67.9296C91.4631 67.9296 91.0543 68.6125 91.0543 69.5559C91.0543 70.4992 91.4757 71.2478 92.356 71.2478C92.8422 71.2593 93.3268 71.1857 93.7881 71.0303V72.214C93.2231 72.4378 92.6192 72.5445 92.0124 72.5276C90.4223 72.5276 89.552 71.3895 89.552 69.5989Z" fill="white"/>
<path d="M94.1047 66.8015H94.965V65.0767H96.4372V66.8015H98.2455V68.0383H96.4372V70.4232C96.4372 70.9872 96.5777 71.2376 97.2674 71.2376C97.5884 71.2384 97.9087 71.2053 98.2229 71.139V72.2998C97.7955 72.4564 97.3434 72.5335 96.8887 72.5274C95.3613 72.5274 94.965 71.7687 94.965 70.5218V68.0383H94.1047V66.8015Z" fill="white"/>
<path d="M98.7095 72.1682V70.977C99.2895 71.1888 99.9009 71.3 100.518 71.3058C101.175 71.3058 101.561 71.1667 101.561 70.8C101.561 70.4332 101.25 70.3118 100.485 70.1272C99.2713 69.8338 98.7646 69.3558 98.7646 68.3568C98.7646 67.3578 99.4544 66.6421 101.087 66.6421C101.734 66.6421 102.509 66.7938 102.82 67.0113V68.2051C102.267 67.9893 101.68 67.8754 101.087 67.8687C100.616 67.8687 100.282 68.0103 100.282 68.3568C100.282 68.7033 100.593 68.8222 101.345 69.0068C102.552 69.3002 103.078 69.7656 103.078 70.7772C103.078 71.7888 102.228 72.5349 100.616 72.5349C99.8707 72.5273 99.043 72.3655 98.7095 72.1682Z" fill="white"/>
<path d="M110.025 71.9204C109.808 72.1261 109.553 72.2865 109.275 72.3924C108.996 72.4983 108.7 72.5476 108.402 72.5375C107.003 72.5375 106.411 71.7029 106.411 70.4434V66.8015H107.886V70.2487C107.886 70.9341 108.229 71.2603 108.889 71.2603C109.26 71.2627 109.625 71.1612 109.942 70.967V66.8015H111.417V72.3656H110.135L110.025 71.9204Z" fill="white"/>
<path d="M112.533 72.168V70.9768C113.114 71.1865 113.725 71.296 114.342 71.3005C114.996 71.3005 115.385 71.1614 115.385 70.7947C115.385 70.428 115.064 70.2939 114.311 70.1194C113.095 69.826 112.591 69.348 112.591 68.349C112.591 67.35 113.278 66.6343 114.913 66.6343C115.558 66.6343 116.333 66.786 116.644 67.0035V68.1973C116.092 67.9815 115.506 67.8675 114.913 67.8609C114.439 67.8609 114.106 68.0025 114.106 68.349C114.106 68.6955 114.419 68.8144 115.172 68.999C116.376 69.2924 116.902 69.7577 116.902 70.7694C116.902 71.781 116.052 72.5271 114.439 72.5271C113.694 72.5271 112.867 72.3653 112.533 72.168Z" fill="white"/>
</svg>
