<svg width="30" height="31" viewBox="0 0 30 31" fill="none" xmlns="http://www.w3.org/2000/svg">
<path fill-rule="evenodd" clip-rule="evenodd" d="M18.0851 17.7522C21.262 14.5754 21.262 9.42463 18.0851 6.24776C14.9083 3.07088 9.75754 3.07088 6.58067 6.24776C3.40379 9.42463 3.40379 14.5754 6.58067 17.7522C9.75754 20.9291 14.9083 20.9291 18.0851 17.7522ZM19.4994 19.1665C23.4573 15.2085 23.4573 8.79147 19.4994 4.83355C15.5414 0.875622 9.12438 0.875622 5.16645 4.83355C1.20853 8.79147 1.20853 15.2085 5.16645 19.1665C9.12438 23.1244 15.5414 23.1244 19.4994 19.1665Z" fill="black"/>
<path fill-rule="evenodd" clip-rule="evenodd" d="M24.7356 25.506L18.6717 19.442L20.0859 18.0278L26.1499 24.0918L24.7356 25.506Z" fill="black"/>
</svg>
