<svg width="24" height="25" viewBox="0 0 24 25" fill="none" xmlns="http://www.w3.org/2000/svg">
<path d="M23.3536 20.9149C23.5488 20.7197 23.5488 20.4031 23.3536 20.2078L20.1716 17.0258C19.9763 16.8306 19.6597 16.8306 19.4645 17.0258C19.2692 17.2211 19.2692 17.5377 19.4645 17.7329L22.2929 20.5614L19.4645 23.3898C19.2692 23.585 19.2692 23.9016 19.4645 24.0969C19.6597 24.2922 19.9763 24.2922 20.1716 24.0969L23.3536 20.9149ZM0.5 0.202148V15.5614H1.5V0.202148H0.5ZM6 21.0614H23V20.0614H6V21.0614ZM0.5 15.5614C0.5 18.5989 2.96243 21.0614 6 21.0614V20.0614C3.51472 20.0614 1.5 18.0466 1.5 15.5614H0.5Z" fill="#FFDD00"/>
</svg>
